<?xml version="1.0" encoding="UTF-8" standalone="no"?>
<!-- Created with Inkscape (http://www.inkscape.org/) -->

<svg
   xmlns:dc="http://purl.org/dc/elements/1.1/"
   xmlns:cc="http://creativecommons.org/ns#"
   xmlns:rdf="http://www.w3.org/1999/02/22-rdf-syntax-ns#"
   xmlns:svg="http://www.w3.org/2000/svg"
   xmlns="http://www.w3.org/2000/svg"
   xmlns:sodipodi="http://sodipodi.sourceforge.net/DTD/sodipodi-0.dtd"
   xmlns:inkscape="http://www.inkscape.org/namespaces/inkscape"
   width="744.09448819"
   height="1052.3622047"
   id="svg2"
   version="1.1"
   inkscape:version="0.48.3.1 r9886"
   sodipodi:docname="New document 1">
  <defs
     id="defs4">
    <inkscape:path-effect
       effect="sketch"
       id="path-effect3025"
       is_visible="true"
       nbiter_approxstrokes="5"
       strokelength="100"
       strokelength_rdm="0.3;1"
       strokeoverlap="0.3"
       strokeoverlap_rdm="0.3;1"
       ends_tolerance="0.1;1"
       parallel_offset="5;1"
       tremble_size="5;1"
       tremble_frequency="1"
       nbtangents="5"
       tgt_places_rdmness="1;1"
       tgtscale="10"
       tgtlength="100"
       tgtlength_rdm="0.3;1" />
    <inkscape:path-effect
       effect="sketch"
       id="path-effect3023"
       is_visible="true"
       nbiter_approxstrokes="5"
       strokelength="100"
       strokelength_rdm="0.3;1"
       strokeoverlap="0.3"
       strokeoverlap_rdm="0.3;1"
       ends_tolerance="0.1;1"
       parallel_offset="5;1"
       tremble_size="5;1"
       tremble_frequency="1"
       nbtangents="5"
       tgt_places_rdmness="1;1"
       tgtscale="10"
       tgtlength="100"
       tgtlength_rdm="0.3;1" />
    <inkscape:path-effect
       effect="sketch"
       id="path-effect3021"
       is_visible="true"
       nbiter_approxstrokes="5"
       strokelength="100"
       strokelength_rdm="0.3;1"
       strokeoverlap="0.3"
       strokeoverlap_rdm="0.3;1"
       ends_tolerance="0.1;1"
       parallel_offset="5;1"
       tremble_size="5;1"
       tremble_frequency="1"
       nbtangents="5"
       tgt_places_rdmness="1;1"
       tgtscale="10"
       tgtlength="100"
       tgtlength_rdm="0.3;1" />
    <inkscape:path-effect
       effect="sketch"
       id="path-effect3019"
       is_visible="true"
       nbiter_approxstrokes="5"
       strokelength="100"
       strokelength_rdm="0.3;1"
       strokeoverlap="0.3"
       strokeoverlap_rdm="0.3;1"
       ends_tolerance="0.1;1"
       parallel_offset="5;1"
       tremble_size="5;1"
       tremble_frequency="1"
       nbtangents="5"
       tgt_places_rdmness="1;1"
       tgtscale="10"
       tgtlength="100"
       tgtlength_rdm="0.3;1" />
    <inkscape:path-effect
       effect="sketch"
       id="path-effect3017"
       is_visible="true"
       nbiter_approxstrokes="5"
       strokelength="100"
       strokelength_rdm="0.3;1"
       strokeoverlap="0.3"
       strokeoverlap_rdm="0.3;1"
       ends_tolerance="0.1;1"
       parallel_offset="5;1"
       tremble_size="5;1"
       tremble_frequency="1"
       nbtangents="5"
       tgt_places_rdmness="1;1"
       tgtscale="10"
       tgtlength="100"
       tgtlength_rdm="0.3;1" />
    <inkscape:path-effect
       effect="sketch"
       id="path-effect3015"
       is_visible="true"
       nbiter_approxstrokes="5"
       strokelength="100"
       strokelength_rdm="0.3;1"
       strokeoverlap="0.3"
       strokeoverlap_rdm="0.3;1"
       ends_tolerance="0.1;1"
       parallel_offset="5;1"
       tremble_size="5;1"
       tremble_frequency="1"
       nbtangents="5"
       tgt_places_rdmness="1;1"
       tgtscale="10"
       tgtlength="100"
       tgtlength_rdm="0.3;1" />
    <inkscape:path-effect
       effect="sketch"
       id="path-effect3013"
       is_visible="true"
       nbiter_approxstrokes="5"
       strokelength="84"
       strokelength_rdm="0.3;1"
       strokeoverlap="0.3"
       strokeoverlap_rdm="0.7;1"
       ends_tolerance="0.1;1"
       parallel_offset="2.8;1"
       tremble_size="3.8;1"
       tremble_frequency="1"
       nbtangents="5"
       tgt_places_rdmness="1;1"
       tgtscale="10"
       tgtlength="100"
       tgtlength_rdm="0.3;1" />
    <inkscape:path-effect
       effect="sketch"
       id="path-effect3011"
       is_visible="true"
       nbiter_approxstrokes="8"
       strokelength="100"
       strokelength_rdm="0.6;1"
       strokeoverlap="0.5"
       strokeoverlap_rdm="0.3;1"
       ends_tolerance="0.2;1"
       parallel_offset="2;1"
       tremble_size="3;1"
       tremble_frequency="1"
       nbtangents="5"
       tgt_places_rdmness="1;1"
       tgtscale="10"
       tgtlength="100"
       tgtlength_rdm="0.3;1" />
  </defs>
  <sodipodi:namedview
     id="base"
     pagecolor="#ffffff"
     bordercolor="#666666"
     borderopacity="1.0"
     inkscape:pageopacity="0.0"
     inkscape:pageshadow="2"
     inkscape:zoom="0.7"
     inkscape:cx="420.81551"
     inkscape:cy="442.63077"
     inkscape:document-units="px"
     inkscape:current-layer="layer1"
     showgrid="false"
     showguides="true"
     inkscape:guide-bbox="true"
     inkscape:window-width="1301"
     inkscape:window-height="744"
     inkscape:window-x="65"
     inkscape:window-y="24"
     inkscape:window-maximized="1" />
  <metadata
     id="metadata7">
    <rdf:RDF>
      <cc:Work
         rdf:about="">
        <dc:format>image/svg+xml</dc:format>
        <dc:type
           rdf:resource="http://purl.org/dc/dcmitype/StillImage" />
        <dc:title></dc:title>
      </cc:Work>
    </rdf:RDF>
  </metadata>
  <g
     inkscape:label="Layer 1"
     inkscape:groupmode="layer"
     id="layer1">
    <path
       style="fill:none;stroke:#000000;stroke-width:1px;stroke-linecap:butt;stroke-linejoin:miter;stroke-opacity:1"
       d="m 138.82643,460.33974 c 8.95166,-0.6122 16.78017,-0.83479 27.0871,-1.55746 6.15153,-0.11338 11.18519,0.82925 16.0225,2.4188 4.83732,1.58955 9.47456,3.82866 14.80382,6.32452 0.45418,0.0564 0.89525,0.12098 1.32414,0.19322 m -24.49073,-12.5317 c 2.25288,0.38711 4.40435,0.93323 6.52746,1.60451 4.86505,1.5382 9.57927,3.73238 15.05161,6.19402 3.18101,0.36754 5.74944,1.12152 7.99711,2.12539 2.24766,1.00387 4.17509,2.25795 6.07939,3.6292 1.38072,0.99423 2.74932,2.0501 4.21957,3.11726 m -15.92208,-5.37405 c 1.13165,0.32369 2.17441,0.71081 3.15397,1.14875 2.16834,0.9694 4.02641,2.18773 5.86295,3.5188 3.67307,2.66214 7.25761,5.77876 13.12997,8.24912 5.75664,3.66688 12.49098,7.72184 19.44802,11.92656 m -12.38337,-9.31217 c 7.18684,4.64289 15.28255,9.72064 23.20212,14.90641 9.42759,6.17324 18.61975,12.51002 25.82505,18.50647 7.47981,8.29203 16.02726,13.76726 22.32386,22.95073 m -34.55182,-33.34439 c 3.10385,2.25318 6.06023,4.49599 8.75841,6.69562 3.79233,4.13987 7.92815,7.55333 11.93092,11.09179 4.00276,3.53847 7.87054,7.20307 11.15977,11.84453 5.82454,6.49329 12.50033,12.48728 19.03653,18.55106 m -19.74838,-18.24697 c 0.69463,0.94818 1.3668,1.93032 2.01198,2.9549 5.8535,7.26386 12.74991,13.7442 19.42218,20.24296 5.14081,5.00711 10.14605,10.02821 14.43087,15.43642 M 314.4053,557.78192 c 6.05326,6.53388 11.88859,13.24565 16.36588,20.81875 5.30972,5.10202 9.61469,10.93252 13.92054,16.81252 0.22282,0.30428 0.44565,0.6087 0.66862,0.91316 m -7.3589,-16.1826 c 3.93595,4.29809 7.25405,9.03104 10.48821,13.84571 4.03326,6.00427 7.93635,12.1349 12.73714,17.71416 0.32258,0.36484 0.63315,0.73527 0.93331,1.11048 M 143.89872,457.14349 c 6.66044,-0.19432 13.16243,-0.3767 21.1649,-0.96833 6.16229,-0.1376 11.21395,0.72247 16.07201,2.19798 4.85807,1.47552 9.51994,3.564 14.87755,5.84934 3.1198,0.2735 5.62484,0.93689 7.80802,1.85059 2.18319,0.91371 4.04417,2.07714 5.87513,3.34959 3.58033,2.4882 7.04737,5.39945 12.58641,7.66494 m -33.55249,-18.93722 c 2.37975,1.10718 4.83466,2.31468 7.47043,3.57896 3.14949,0.43952 5.69474,1.2408 7.92228,2.28401 2.22753,1.04322 4.13797,2.32801 6.02637,3.72676 3.7768,2.79751 7.46065,6.04758 13.45901,8.71686 7.96483,5.24569 17.7401,11.29127 27.44216,17.65214 3.25021,2.13091 6.49095,4.29733 9.64843,6.47927 m -33.03989,-18.79402 c 7.03328,4.43099 14.85454,9.2639 22.47499,14.19497 9.375,6.06643 18.45882,12.2846 25.54269,18.14761 1.50645,1.67033 3.057,3.22089 4.62266,4.70756 m -23.66272,-19.63943 c 5.99319,4.08304 11.55191,8.0923 16.22567,11.91298 7.70028,8.39382 16.35941,13.70138 22.39729,22.84271 5.8256,6.87339 12.45561,13.11436 18.76548,19.5028 m -25.26579,-24.26715 c 1.86274,1.98055 3.61839,4.1096 5.21176,6.49794 6.16345,7.28442 13.14656,14.12208 19.76917,21.28502 6.6226,7.16294 12.88409,14.64382 17.60593,23.21435 0.78183,0.82565 1.54128,1.66862 2.2816,2.52694 m -14.83454,-24.63053 c 5.57483,6.39067 10.80257,12.96966 14.74419,20.34556 5.0856,5.35411 9.09673,11.46347 13.02754,17.68636 0.0887,0.14047 0.17741,0.28099 0.26607,0.42157 m -9.78907,-14.54931 c 3.73699,4.13256 6.92653,8.65341 10.05165,13.23446 4.01743,5.88907 7.92897,11.8781 12.75594,17.2737 0.56671,0.6163 1.09696,1.24947 1.59921,1.89503 M 126.54064,457.23834 c 6.60089,-0.39505 12.23734,-0.55254 17.98306,-0.70322 5.74571,-0.15067 11.60192,-0.29703 18.70478,-0.67802 6.26852,-0.0185 11.47139,0.98275 16.51547,2.63216 5.04408,1.64942 9.93142,3.94574 15.59205,6.52436 3.28146,0.42996 5.92993,1.23553 8.25074,2.28854 1.93647,0.87862 3.64514,1.9297 5.30301,3.07924 m -34.93796,-13.01742 c 2.67675,0.45125 5.19098,1.09536 7.65698,1.88693 4.94153,1.5862 9.69002,3.76728 15.1481,6.12938 3.1734,0.31444 5.7227,1.00423 7.94692,1.93877 2.22422,0.93453 4.12313,2.11293 5.99275,3.3968 3.73923,2.56772 7.36145,5.56689 13.22663,7.83323 7.77154,4.66088 17.20992,9.87599 26.51979,15.16723 2.21288,1.25768 4.41858,2.52057 6.59292,3.78371 m -40.10827,-24.1082 c 1.69482,1.10084 3.58148,2.17485 5.78381,3.16891 7.82045,5.23596 17.34999,11.28713 26.7595,17.62628 9.40952,6.33915 18.70022,12.97584 26.00056,19.29194 6.33967,7.2412 13.43299,12.55615 19.30644,19.76885 m -37.93006,-34.14934 c 6.09514,4.18259 11.89357,8.33123 16.81249,12.29677 7.78009,8.35849 16.74814,13.68978 23.31071,22.88012 2.53463,2.80071 5.22297,5.50075 7.98654,8.15011 m -22.11113,-16.36665 c 3.75009,3.33006 7.31027,6.82494 10.31328,11.19573 6.17181,7.06668 13.22129,13.57665 19.96209,20.26629 6.7408,6.68964 13.16968,13.5594 18.10137,21.34541 2.36742,2.15461 4.54615,4.44128 6.61894,6.80557 M 315.5836,559.19174 c 6.3607,6.53506 12.29266,13.25129 16.684,20.83989 5.19827,5.0462 9.29099,10.81674 13.30744,16.62348 4.01646,5.80674 7.95686,11.65118 12.84885,16.84252 4.42977,4.57198 6.70948,10.12186 10.74782,14.57931 M 133.75977,455.75152 c 4.89097,-0.43041 9.40092,-0.67861 14.1219,-0.91737 4.72097,-0.23877 9.65352,-0.46697 15.4191,-0.81747 6.20666,-0.0595 11.36036,0.9498 16.35338,2.61837 4.99302,1.66856 9.82811,4.00063 15.42339,6.61874 3.2466,0.45102 5.86499,1.27291 8.15685,2.33871 2.29185,1.06579 4.25763,2.37601 6.19875,3.80304 3.88222,2.85408 7.66205,6.17392 13.75117,8.92454 0.74642,0.49448 1.5077,0.99573 2.28233,1.50317 m -43.69188,-19.13229 c 3.96262,1.41733 7.91706,3.19131 12.34821,5.09422 3.16771,0.30231 5.71566,0.98685 7.93993,1.91803 2.22428,0.93118 4.12485,2.10846 5.9973,3.39224 3.7449,2.56757 7.37728,5.57188 13.26051,7.84179 7.79774,4.66606 17.27692,9.88115 26.60147,15.07883 3.79186,2.11365 7.5582,4.2267 11.17548,6.31261 m -37.39504,-18.86204 c 7.24058,4.69127 15.80315,9.99226 24.32949,15.48515 9.40431,6.0585 18.75849,12.34667 26.12354,18.28229 7.85021,8.41263 16.83671,13.86592 23.31596,23.23345 1.32723,1.51402 2.69417,3.00124 4.08885,4.4688 M 265.49462,503.219 c 3.10261,2.31629 6.00972,4.60638 8.63939,6.84513 7.70873,8.70003 16.39727,14.40437 22.45083,24.18429 5.90055,7.47687 12.61122,14.45205 18.94653,21.73808 1.81722,2.08992 3.60361,4.20521 5.33122,6.36466 m -22.6557,-24.42356 c 5.78294,6.97054 12.38329,13.44674 18.63221,20.14064 3.44146,3.68653 6.77635,7.43884 9.80947,11.37513 m -9.19496,-9.62976 c 0.0382,0.0384 0.0765,0.0769 0.11469,0.11532 6.56129,6.60105 12.73328,13.47336 17.31016,21.33698 5.25081,5.10038 9.41471,10.96914 13.52345,16.90882 4.10873,5.93968 8.1616,11.95083 13.19085,17.33715 0.88676,0.92449 1.69212,1.88616 2.44514,2.86985 M 140.81527,459.35851 c 7.5366,-0.25878 14.61861,-0.39406 23.80493,-1.02669 6.08812,-0.10134 11.12342,0.80656 15.98086,2.34259 2.84561,0.89984 5.63087,2.01452 8.53384,3.26426 m -19.5884,-4.87945 c 3.25771,0.43861 6.26419,1.16874 9.21247,2.1121 4.91867,1.57381 9.67451,3.74293 15.18215,6.09183 3.19983,0.3074 5.78083,0.99153 8.03916,1.92085 2.25833,0.92932 4.19435,2.10295 6.10668,3.38196 3.82465,2.55801 7.54935,5.54742 13.58928,7.80053 3.06565,1.77315 6.39187,3.62877 9.87649,5.53677 M 205.07157,465.9547 c 0.4045,0.27245 0.80496,0.55209 1.20435,0.8375 3.68652,2.6344 7.27824,5.75414 13.15108,8.31537 7.78266,5.08888 17.33909,11.09454 26.8178,17.44225 9.47871,6.34771 18.86952,13.02241 26.23795,19.31189 4.34383,4.89116 9.02547,8.87569 13.42345,13.12306 m -37.60388,-26.30981 c 9.02077,6.24204 17.98542,12.50054 25.09569,18.35855 7.73581,8.47965 16.65748,13.91815 23.11402,23.31351 0.20761,0.23832 0.41624,0.47601 0.62584,0.7131 m -13.29942,-23.07877 c 6.29086,5.93554 12.75562,10.92631 17.60512,18.36797 5.98139,7.19343 12.7987,13.8077 19.24043,20.61736 2.81907,2.98008 5.5663,5.99756 8.1402,9.11725 m -20.77906,-18.93616 c 3.53633,3.6165 7.11551,7.18936 10.55602,10.83375 6.4526,6.83497 12.41984,13.92004 16.70802,22.01425 5.01901,5.28554 8.9021,11.34691 12.67723,17.5099 3.27068,5.33947 6.46175,10.75401 10.24091,15.80593 m -22.90054,-34.56359 c 4.38528,4.67317 8.02445,9.90314 11.6333,15.20352 4.0466,5.94331 8.05546,11.97523 13.03887,17.41329 0.60323,0.64077 1.16818,1.2994 1.70418,1.97102 M 147.59333,452.92266 c 6.37229,-0.21839 12.66461,-0.37579 20.29937,-0.76987 6.19922,-0.002 11.27219,1.03602 16.1491,2.73459 4.87692,1.69857 9.55402,4.05806 14.9287,6.72386 3.1289,0.47646 5.64145,1.32373 7.832,2.4168 2.19056,1.09307 4.05873,2.43252 5.89771,3.89436 2.27424,1.80783 4.50392,3.80168 7.24525,5.74925 m -35.88884,-9.31757 c 2.82844,1.21653 5.73197,2.5886 8.88915,4.03972 3.16274,0.38774 5.71542,1.14818 7.94829,2.15365 2.23288,1.00547 4.14639,2.25572 6.0364,3.61884 3.78003,2.72623 7.46202,5.90443 13.447,8.46407 7.94541,5.08658 17.67423,10.91713 27.31816,16.96402 3.61748,2.26822 7.22186,4.56734 10.71112,6.8699 m -33.31049,-29.56995 c 6.70143,4.21291 14.44263,8.99531 22.16692,14.02823 4.60222,2.99867 9.19546,6.08294 13.54164,9.16883 m -9.75397,-3.02395 c 9.24128,5.86069 17.95717,11.89392 24.64303,17.58899 3.62586,4.15743 7.47407,7.57096 11.09204,11.09919 3.61796,3.52822 7.00973,7.17231 9.68179,11.78353 5.31125,7.01383 11.32947,13.41362 16.88564,19.95565 1.13872,1.34077 2.25819,2.68756 3.34842,4.04693 m -26.1477,-31.96768 c 3.3785,3.16455 6.55593,6.49995 9.2535,10.5496 6.11229,7.21979 13.02822,13.83008 19.56647,20.6165 6.53824,6.78641 12.69944,13.74947 17.30263,21.67505 5.27196,5.15013 9.47995,11.04883 13.66893,17.0287 0.0972,0.13878 0.19444,0.27761 0.29165,0.41647 M 318.7893,557.06999 c 4.98145,5.50357 9.62035,11.25608 13.30109,17.64502 5.30031,5.25118 9.55946,11.27952 13.80086,17.41688 0.55244,0.79939 1.10458,1.60062 1.65867,2.40222 m -9.06238,-6.04019 c 2.88742,3.69702 5.51969,7.58391 8.17612,11.4736 4.05665,5.93995 8.16889,11.88685 13.34167,17.16955 3.54364,3.52333 5.88746,7.597 8.72863,11.33387 M 129.71317,457.03321 c 5.86297,-0.55074 11.04063,-0.80711 16.39139,-1.02466 5.35076,-0.21755 10.87576,-0.39438 17.4964,-0.71296 6.2799,0.0155 11.50398,1.09073 16.57536,2.83096 5.07138,1.74022 9.99304,4.14926 15.70035,6.86662 3.30637,0.50398 5.97704,1.37217 8.31913,2.48263 2.34208,1.11047 4.3563,2.46392 6.34887,3.93719 1.92712,1.42488 3.83352,2.9614 5.99474,4.49616 m -35.83295,-15.83949 c 1.07757,0.2752 2.13828,0.58439 3.19115,0.9236 4.86493,1.56734 9.56146,3.77528 14.98866,6.23273 3.15693,0.36531 5.69951,1.11263 7.92024,2.10816 2.22073,0.99553 4.11978,2.2393 5.992,3.59787 3.74445,2.71716 7.38117,5.89353 13.27723,8.46264 0.098,0.064 0.19631,0.12804 0.29486,0.19224 m -17.19786,-12.96579 c 0.86438,0.58093 1.69671,1.19642 2.52428,1.83437 3.6386,2.80487 7.18286,6.04787 12.98554,8.65884 7.68082,5.16108 17.10387,11.00279 26.38863,16.99752 0.73321,0.4734 1.46549,0.94783 2.1959,1.42307 m -18.38825,-11.92975 c 4.673,3.02332 9.63868,6.21167 14.60731,9.47688 7.69458,5.05661 15.39542,10.29748 21.95561,15.37176 m -14.1262,-5.66236 c 6.09753,4.3136 11.90072,8.53795 16.81369,12.54715 7.71198,8.39076 16.61185,13.67572 23.06279,22.78297 5.31029,5.89627 11.29826,11.31848 17.19734,16.76976 m -23.61201,-26.78896 c 2.33343,2.39006 4.52899,4.95785 6.47306,7.91861 6.00624,7.17226 12.88858,13.78868 19.42315,20.6128 6.53457,6.82411 12.72046,13.85481 17.33392,21.85553 5.28018,5.21047 9.48745,11.17331 13.64705,17.21284 1.82472,2.64941 3.6402,5.3135 5.53285,7.93509 m -31.70536,-40.10076 c 3.76933,4.22514 7.2224,8.65486 10.08907,13.45609 5.34447,5.09822 9.61438,10.96766 13.85278,16.91665 4.2384,5.94898 8.44309,11.97787 13.65973,17.39745 1.88213,1.90454 3.42444,3.96635 4.8782,6.05566 M 131.67285,456.12421 c 5.80126,-0.41434 10.85458,-0.6318 16.01018,-0.85985 5.1556,-0.22805 10.41405,-0.46622 16.56551,-0.92142 5.93964,-0.12153 10.78514,0.78942 15.41346,2.33589 4.62831,1.54647 9.03746,3.72881 14.06197,6.14769 2.94208,0.34473 5.29022,1.07283 7.32139,2.04918 2.03117,0.97635 3.74431,2.20086 5.41666,3.5382 3.34469,2.67468 6.54427,5.80346 11.76621,8.29241 0.63039,0.45947 1.2723,0.92506 1.92432,1.3963 m -39.07243,-19.49313 c 4.93718,1.48816 9.66361,3.58231 15.02266,5.89327 3.17532,0.31078 5.71148,1.00994 7.91653,1.95846 2.20505,0.94851 4.07796,2.14623 5.91388,3.45484 3.67183,2.61721 7.20244,5.68439 12.88792,8.07184 7.51072,4.83666 16.5195,10.32406 25.29579,15.86836 2.36875,1.49642 4.7217,2.99756 7.02657,4.49354 m -33.17236,-23.79886 c 0.15463,0.0669 0.31087,0.13344 0.46878,0.19951 7.68646,4.89796 17.07863,10.66855 26.32988,16.7633 9.25124,6.09476 18.35293,12.49732 25.44408,18.54101 5.34529,6.07639 11.24297,10.65812 16.35136,16.20967 m -26.89697,-23.3405 c 5.1168,3.60939 9.91355,7.13808 14.04898,10.51091 7.67617,8.35757 16.44362,13.59912 22.67042,22.62129 4.27699,4.8452 8.99201,9.35071 13.7163,13.80019 m -24.06333,-23.94626 c 2.10674,2.193 4.09885,4.58083 5.8774,7.3448 5.84086,7.07489 12.66895,13.8095 19.20469,20.90638 6.53574,7.09689 12.7757,14.54707 17.43858,23.05133 0.86505,0.913 1.70163,1.84705 2.51405,2.79923 m -21.65554,-18.9207 c 5.97609,6.37399 11.61011,12.93663 15.92204,20.31193 5.30637,5.16718 9.56311,11.07054 13.79644,17.04001 1.8782,2.64847 3.75171,5.30991 5.71007,7.92572 m -10.37215,-21.62249 c 2.654,3.29486 5.06718,6.75049 7.44871,10.22716 4.04263,5.90164 7.99452,11.86423 12.87612,17.20357 1.98521,2.11255 3.53366,4.42406 4.9989,6.7485 M 258.38356,495.08835 346.74361,590.4728 m -1.14936,6.45217 29.95593,33.54849 m -64.95051,-85.10469 64.44709,88.89047 M 147.23284,449.59946 205.2666,463.44152 m 18.47154,10.52065 93.5674,72.20733"
       id="path2985"
       inkscape:connector-curvature="0"
       inkscape:path-effect="#path-effect3011"
       inkscape:original-d="m 124.28572,457.36219 c 15.16669,-1.29879 24.72256,-1.13073 39.78489,-2.14287 12.31249,-0.19156 20.30858,3.73496 31.19049,8.65273 12.65705,1.46431 15.41561,9.03052 27.17714,14.16324 15.58833,10.19265 37.90605,23.46723 52.23243,35.34277 7.60414,8.41525 16.32064,13.87222 22.47219,23.26984 11.96388,14.31866 27.37792,26.32898 36.42857,42.14285 10.41885,10.27033 16.50478,23.50726 26.42857,34.28572 4.66903,4.93552 7.01461,10.93848 11.42857,15.71428"
       sodipodi:nodetypes="ccccccccc" />
    <path
       style="fill:none;stroke:#000000;stroke-width:1px;stroke-linecap:butt;stroke-linejoin:miter;stroke-opacity:1"
       d="m 327.59138,669.98501 c -3.174,-1.58681 -6.1069,-2.96619 -8.97821,-4.51188 -4.4857,-2.41475 -8.81441,-5.23884 -13.79373,-9.82195 -9.54995,-5.62718 -17.44872,-14.51718 -24.49278,-20.16822 -4.98025,-5.3499 -10.58552,-10.1841 -16.55398,-14.63026 m 13.10632,2.93608 c -8.43071,-9.12457 -18.13983,-16.66508 -28.18849,-23.13477 -4.4625,-2.05663 -7.8133,-4.6042 -10.93897,-7.42762 -3.12567,-2.82343 -6.02547,-5.92197 -9.56926,-9.07151 -2.23091,-1.07241 -4.38162,-2.26458 -6.47117,-3.54267 m 6.00473,14.62046 c -1.88571,-1.72971 -3.81816,-3.51766 -5.94072,-5.33202 -13.34806,-6.45828 -23.88905,-16.70532 -35.08777,-25.06285 0.0636,-0.69794 -0.19483,-1.80521 -0.64503,-3.07111 -0.12974,-0.36481 -0.27544,-0.74273 -0.43404,-1.12767 M 324.63031,665.4134 c -2.5151,-1.06022 -4.88429,-2.06705 -7.20708,-3.20509 -4.43419,-2.1725 -8.69543,-4.82095 -13.54349,-9.27197 -9.33485,-5.41071 -16.8854,-14.31412 -23.59111,-19.96502 -8.27686,-9.41063 -18.33726,-17.22228 -28.72981,-23.74802 m 13.38498,7.52691 c -7.00195,-6.47322 -14.44362,-12.1508 -21.93652,-17.27228 -4.40775,-2.1832 -7.67443,-4.85322 -10.68862,-7.8142 -3.0142,-2.96097 -5.77427,-6.21121 -9.12334,-9.55371 -8.16113,-4.49792 -14.99998,-10.83518 -21.6398,-17.13563 m 17.0556,18.92535 c -10.23187,-5.66491 -18.87632,-13.59299 -27.74614,-20.54757 0.0762,-0.70863 -0.16149,-1.83399 -0.58302,-3.1261 -0.42152,-1.29211 -1.02715,-2.75059 -1.69544,-4.11457 -0.66829,-1.36398 -1.39958,-2.63304 -2.07844,-3.53889 -0.14742,-0.1967 -0.29237,-0.37627 -0.43366,-0.53597 m 135.33854,111.69623 c -3.98481,-1.71152 -7.49089,-3.15294 -10.84689,-4.83438 -4.63718,-2.32335 -8.99608,-5.10313 -13.78458,-9.71153 -9.23726,-5.6686 -16.19607,-14.81908 -22.34057,-20.71587 -2.84748,-3.71898 -5.91787,-7.22188 -9.153,-10.53697 m 16.78545,7.7378 c -0.54255,-0.50937 -1.08083,-0.99969 -1.61522,-1.4676 -8.27894,-9.76436 -18.83702,-17.55855 -30.327,-23.95595 -4.77225,-1.86929 -8.45872,-4.23272 -11.97052,-6.84879 -3.51181,-2.61606 -6.84927,-5.4851 -10.94373,-8.34363 -0.55801,-0.20383 -1.11274,-0.41316 -1.66438,-0.62762 m 10.13215,10.8054 c -2.9791,-2.6914 -5.84649,-5.6668 -9.36631,-8.74964 -12.7783,-6.19657 -23.63978,-16.54001 -35.45447,-25.06876 0.0337,-0.70625 -0.27328,-1.82702 -0.78538,-3.10999 -0.33699,-0.84427 -0.76263,-1.75843 -1.23735,-2.66876 m 135.94148,101.19884 c -2.71839,-1.02929 -5.24057,-2.00695 -7.68818,-3.11687 -4.65153,-2.10932 -9.04254,-4.69593 -13.90896,-9.05589 -9.36494,-5.26148 -16.55347,-13.97254 -22.90721,-19.42954 -6.93764,-8.15117 -15.15296,-14.95285 -23.88017,-20.57174 m 14.54146,16.44558 c -6.58565,-6.63231 -14.347,-12.51816 -22.62574,-17.85391 -4.55156,-2.11682 -8.04553,-4.74893 -11.35144,-7.67633 -3.30591,-2.9274 -6.42678,-6.15092 -10.25437,-9.46071 -7.75302,-3.76758 -14.74007,-8.85519 -21.52435,-14.04998 m 11.80214,6.34563 c -10.39854,-5.83448 -19.77041,-14.44094 -29.99798,-21.66293 0.0457,-0.68874 -0.24243,-1.78163 -0.73306,-3.03116 -0.0815,-0.20759 -0.16859,-0.41948 -0.26065,-0.63453 m 136.02351,110.40877 c -4.59245,-2.13617 -8.58293,-3.6909 -12.4237,-5.53504 -4.46052,-2.14172 -8.72317,-4.68301 -13.51919,-8.82539 -4.62478,-2.45246 -8.77052,-5.67215 -12.56238,-8.84811 -3.79187,-3.17597 -7.22938,-6.31012 -10.45933,-8.65391 -4.35225,-4.41155 -9.20136,-8.21061 -14.31282,-11.46481 m 19.04942,7.09356 c -8.98343,-9.04665 -19.65963,-16.56439 -31.00747,-22.7974 -4.71904,-1.80667 -8.32668,-4.13062 -11.74638,-6.70369 -3.4197,-2.57307 -6.64905,-5.39869 -10.61879,-8.18869 -2.28228,-0.82248 -4.50652,-1.73751 -6.68932,-2.71489 m 15.3127,3.41898 c -2.06078,-2.04263 -4.18099,-4.16075 -6.5993,-6.2984 -12.97158,-6.45399 -23.97329,-16.33673 -36.02929,-24.08633 0.022,-0.66844 -0.30393,-1.72795 -0.84021,-2.93326 -0.53627,-1.20531 -1.28242,-2.55648 -2.09479,-3.8095 -0.65163,-1.00511 -1.34573,-1.9471 -2.00672,-2.70024 M 291.2237,647.70184 174.31347,537.21321 m 21.52275,37.15441 -10.75065,-29.14337 m 77.35112,71.1168 -118.74493,-90.23619 m 186.01272,146.08953 -52.41961,-43.94412 m 24.4015,12.92222 -93.73109,-66.17217"
       id="path2987"
       inkscape:connector-curvature="0"
       inkscape:path-effect="#path-effect3021"
       inkscape:original-d="m 330.48445,664.79014 c -11.65612,-5.5266 -19.31052,-7.43916 -29.243,-16.54537 -9.52852,-5.578 -17.13939,-14.57003 -23.91002,-20.31151 -8.49264,-9.68028 -18.84886,-17.7542 -29.82774,-24.74877 -9.14923,-4.20039 -13.91018,-10.40772 -21.42599,-16.89593 -12.92599,-6.18949 -23.57476,-16.09086 -35.05335,-23.92242 0.20013,-2.68966 -4.88993,-11.6775 -6.7948,-11.22847"
       sodipodi:nodetypes="ccccccc" />
    <path
       style="fill:none;stroke:#000000;stroke-width:1px;stroke-linecap:butt;stroke-linejoin:miter;stroke-opacity:1"
       d="m 369.70729,632.91221 c 5.42126,-3.87385 11.33016,-6.47197 17.19765,-8.943 7.53707,-3.17416 15.00526,-6.13668 21.26163,-11.3102 7.96243,-3.28108 14.98116,-6.25435 21.5305,-9.30509 m -11.34763,-1.74772 c 11.64454,-5.27197 21.86577,-10.01309 32.11784,-15.7558 7.67705,-2.9641 15.24985,-6.8721 22.89472,-10.65217 m -9.67176,6.05166 c 3.45604,-2.00778 6.95458,-4.06085 10.51249,-6.02781 8.954,-4.95014 18.27807,-9.35165 28.22531,-11.11379 3.31145,-1.14444 7.14498,-2.80541 9.67463,-3.80323 0.63241,-0.24946 1.1832,-0.45714 1.62376,-0.60419 0.44057,-0.14706 0.77086,-0.23336 0.96263,-0.24068 0.0959,-0.004 0.15704,0.0126 0.18072,0.0497 0.0237,0.037 0.0103,0.0941 -0.0427,0.17155 -0.10592,0.15486 -0.37051,0.39197 -0.82016,0.72568 1.93368,-0.39141 3.96713,-0.82923 6.04394,-1.30764 m -1.71027,1.69094 c 0.045,-0.003 0.0854,-0.004 0.1211,-0.003 0.0975,0.003 0.15953,0.0237 0.18396,0.0641 0.0244,0.0404 0.0119,0.10133 -0.0395,0.18615 -0.10271,0.16962 -0.36129,0.43428 -0.80261,0.81177 5.66166,-0.71906 12.07519,-1.77458 17.92608,-3.06095 m -169.67806,66.0756 c 4.65897,-3.31197 9.93197,-5.68607 15.36303,-7.99099 7.63605,-3.2407 15.57675,-6.34054 22.58661,-11.71657 10.85593,-4.33129 20.5445,-8.25297 29.67523,-12.44655 m -13.59543,10.53092 c 5.27397,-2.20472 10.32233,-4.52067 15.26328,-7.03674 4.94095,-2.51607 9.77563,-5.23333 14.66003,-8.28374 9.75757,-4.38498 19.49114,-10.68024 29.48914,-16.60777 0.13566,-0.0804 0.27136,-0.16079 0.40711,-0.24107 m -13.10598,6.03198 c 2.3709,-1.32222 4.76895,-2.64686 7.2,-3.93219 9.04453,-4.78198 18.53852,-9.01839 28.77276,-10.55927 3.41055,-1.06804 7.38166,-2.62862 10.01067,-3.55554 0.65725,-0.23173 1.23014,-0.42373 1.68839,-0.55826 0.45825,-0.13454 0.80171,-0.21156 1.00104,-0.21354 0.0997,-10e-4 0.16302,0.0168 0.18853,0.0552 0.0255,0.0383 0.0142,0.0969 -0.0347,0.17714 -0.0979,0.16053 -0.34745,0.40821 -0.77251,0.75916 3.33083,-0.55475 6.96151,-1.21978 10.63119,-1.97003 m -4.20175,-0.40015 c 7.15024,-1.25728 15.10923,-2.82615 21.42662,-4.53158 m -175.16751,77.06858 c 5.57539,-3.96603 11.79259,-6.62387 17.99683,-9.2932 7.49269,-3.22367 14.9664,-6.46007 21.24983,-12.05853 11.13018,-5.19884 20.47156,-9.97695 29.19717,-15.12187 m -15.82011,6.47015 c 11.38145,-4.45073 21.44818,-8.94209 31.57713,-14.42558 9.62867,-3.55752 19.12587,-8.63572 28.82533,-12.92561 3.38086,-1.49529 6.78547,-2.89528 10.22714,-4.1041 m -19.03459,9.46353 c 2.29144,-1.14749 4.56392,-2.29755 6.8258,-3.41988 9.43168,-4.6799 18.68246,-8.87565 28.37304,-10.38344 3.22284,-1.05662 6.92144,-2.60473 9.35658,-3.52302 0.60879,-0.22957 1.13873,-0.41968 1.5627,-0.55269 0.42397,-0.13302 0.74201,-0.20891 0.92677,-0.21026 0.0924,-6.7e-4 0.15149,0.0174 0.17348,0.0558 0.022,0.0385 0.007,0.0972 -0.05,0.17782 -0.11337,0.16122 -0.39186,0.41018 -0.8639,0.76323 5.21581,-0.92085 11.1687,-2.15239 16.71703,-3.5627 m -15.60164,-1.2798 c 4.70787,-0.70718 9.60425,-1.63089 14.08104,-2.7131 m -168.55394,73.02643 c 5.02147,-3.14379 10.48135,-5.28959 15.96923,-7.28325 7.70135,-2.79777 15.45148,-5.30911 22.12016,-9.83872 10.01685,-3.09654 18.80892,-5.58538 27.1215,-8.05734 m -9.0881,0.0531 c 10.56616,-4.21822 19.83107,-8.37259 28.921,-13.30737 8.36356,-3.01251 16.42071,-7.20903 24.40069,-10.77791 m -4.67686,0.33991 c 2.79722,-1.58261 5.57601,-3.15374 8.34941,-4.65491 9.07233,-4.9106 18.09175,-9.07491 27.51868,-10.45518 3.13182,-1.01259 6.71633,-2.49276 9.07146,-3.36279 0.58878,-0.21751 1.10105,-0.39693 1.51092,-0.52142 0.40987,-0.1245 0.71745,-0.19409 0.89621,-0.19181 0.0894,0.001 0.14674,0.0202 0.16728,0.0596 0.0205,0.0393 0.004,0.0991 -0.0563,0.18161 -0.11974,0.16506 -0.41013,0.42119 -0.90159,0.78584 3.6861,-0.59628 7.73614,-1.34355 11.70397,-2.21006 m -9.59954,2.90563 c 4.63898,-0.68078 9.75941,-1.57143 14.60887,-2.61042 m -166.0768,74.73898 c 5.91704,-4.68537 12.75085,-7.67351 19.61708,-10.7207 7.5299,-3.34172 15.09624,-6.74808 21.52149,-12.57744 12.1955,-5.95852 22.38997,-11.49284 31.98722,-17.57865 m -22.29724,10.33264 c 12.3446,-4.94523 22.8133,-9.5413 33.21727,-15.10087 9.4682,-3.40892 18.68212,-8.22512 28.07289,-12.23166 4.56622,-1.94816 9.17352,-3.70678 13.86994,-5.02622 m -24.00896,5.78498 c 2.57429,-1.36199 5.16079,-2.73696 7.76915,-4.07615 9.26718,-4.75798 18.80506,-9.06106 29.04568,-10.72007 3.41275,-1.10884 7.38063,-2.7264 10.00752,-3.69359 0.65672,-0.2418 1.22915,-0.44271 1.68705,-0.58435 0.4579,-0.14164 0.80111,-0.22393 1.0003,-0.22893 0.0996,-0.003 0.16292,0.0144 0.1884,0.052 0.0255,0.0376 0.0141,0.0953 -0.0349,0.17397 -0.098,0.15733 -0.34785,0.39902 -0.77326,0.74024 5.22125,-0.95217 11.18726,-2.19918 16.89997,-3.62149 m -19.24142,7.68026 c 6.43314,-1.22494 13.47245,-2.75805 19.4327,-4.44568 m -117.51435,48.61142 122.84444,-63.44463 m -72.05575,29.86959 125.84202,-27.50715 m -117.95768,30.44467 78.13683,-28.49154 m -208.03394,91.26563 92.2723,-41.01034 m -28.28007,9.41592 86.3376,-38.21384"
       id="path2989"
       inkscape:connector-curvature="0"
       sodipodi:nodetypes="cccccc"
       inkscape:path-effect="#path-effect3013"
       inkscape:original-d="m 363.44869,631.25465 c 12.2482,-11.42359 29.67827,-12.92281 42.59037,-23.40049 17.49076,-7.1689 30.91451,-13.03276 44.11033,-20.79677 18.65646,-7.60592 36.05369,-21.412 55.58461,-24.2572 6.49739,-2.05442 14.97778,-6.01821 11.26529,-3.13304 8.00633,-1.28924 17.74428,-3.24151 25.08586,-5.48327" />
    <path
       style="fill:none;stroke:#000000;stroke-width:1px;stroke-linecap:butt;stroke-linejoin:miter;stroke-opacity:1"
       d="m 339.71419,678.63355 c 7.95103,2.89877 15.92521,5.41503 23.15024,9.71967 4.22889,2.56063 8.71892,5.42659 13.49709,6.81262 2.38909,0.69302 4.85114,1.01546 7.38497,0.74533 2.53383,-0.27013 5.13938,-1.13274 7.80558,-2.80656 4.47188,-4.17655 8.75117,-6.823 12.86021,-9.6092 1.96754,-1.33412 3.89562,-2.70004 5.78475,-4.281 m -17.04814,0.93645 c 3.29546,-2.71115 6.53048,-4.78584 9.69677,-6.91804 4.26859,-2.87448 8.40888,-5.85483 12.47565,-10.59699 8.19525,-4.2866 14.657,-8.4438 21.21117,-12.76962 5.11538,-3.3762 10.29291,-6.85109 16.45218,-10.54088 m -19.17977,14.522 c 5.06185,-3.92107 10.458,-8.02194 17.31917,-12.51366 8.34683,-3.94557 16.61505,-9.13343 24.88649,-14.38767 7.3965,-4.69846 14.791,-9.44969 22.22736,-13.38968 m -9.02594,10.79111 c 6.02976,-3.18167 11.93844,-6.2458 17.83004,-8.72754 14.36666,-10.35464 30.55671,-19.57481 45.75856,-29.44499 m -218.89893,82.14919 c 6.7885,2.67454 13.92994,5.10198 20.75232,8.98339 4.33686,2.50791 9.08122,5.29069 14.21515,6.57359 2.56697,0.64145 5.22999,0.90774 8.00103,0.57281 2.77105,-0.33492 5.64987,-1.2709 8.67574,-3.04012 5.16963,-4.36163 10.13218,-7.18666 14.96214,-10.16365 4.13346,-2.54769 8.16614,-5.20361 12.21292,-9.05148 m -17.68326,19.40528 c 2.12819,-1.46783 4.24045,-2.79774 6.33206,-4.18412 4.22191,-2.79842 8.34899,-5.81361 12.45357,-10.77617 8.25098,-4.61143 14.85365,-9.3453 21.60419,-14.41805 6.75055,-5.07275 13.65998,-10.49354 22.7577,-16.77836 0.94565,-0.49609 1.8902,-1.00673 2.83377,-1.53059 m -22.08812,13.30217 c 3.59136,-2.60411 7.50691,-5.31414 12.09436,-8.18246 8.4323,-3.77113 16.86352,-8.76928 25.40537,-13.78654 8.54184,-5.01726 17.18789,-10.05288 25.99278,-13.88574 1.19091,-0.85334 2.39835,-1.6992 3.62054,-2.53866 m -9.67928,4.25779 c 3.82719,-2.14973 7.60731,-4.11378 11.36636,-5.77711 14.29199,-10.77075 30.14638,-19.33977 44.14502,-28.34515 0.62288,-0.0549 1.25093,-0.14527 1.86706,-0.28081 m -221.54658,90.17882 c 9.20738,4.33778 18.78126,7.07956 27.35435,12.0751 4.18892,2.48171 8.65639,5.18214 13.4272,6.3474 2.3854,0.58264 4.84712,0.7821 7.38351,0.36886 2.53638,-0.41324 5.14733,-1.43916 7.82341,-3.32438 4.49105,-4.58667 8.79595,-7.62451 12.93057,-10.81434 3.66598,-2.82829 7.19808,-5.77289 10.5965,-10.0636 m -17.05605,14.16363 c 3.08654,-2.23077 6.12259,-4.00181 9.10101,-5.85085 4.27217,-2.65222 8.42098,-5.46821 12.50802,-10.06166 8.22514,-4.06744 14.72876,-8.13447 21.33773,-12.3522 6.60897,-4.21773 13.33045,-8.60694 22.13359,-13.23555 4.4557,-1.62787 8.87131,-3.50941 13.26133,-5.48376 m -26.41188,13.29734 c 2.99793,-1.88469 6.15886,-3.8372 9.60318,-5.87763 8.69497,-3.66934 16.93236,-8.60622 24.97374,-13.5769 8.04138,-4.97068 15.89298,-9.97303 23.84039,-13.75892 3.94364,-3.14957 8.07287,-6.19035 12.32263,-9.17174 m -21.8872,6.00131 c 1.54059,-0.69346 3.0744,-1.36059 4.60334,-1.99358 14.98525,-10.59092 31.42562,-20.49484 46.30214,-31.74599 0.98028,-0.2054 1.97438,-0.49608 2.92348,-0.90086 m -217.50316,98.14103 c 7.50769,3.03678 15.11213,5.85085 22.15892,10.36401 4.35241,2.82941 9.02058,6.01633 14.01315,7.7586 2.49629,0.87114 5.07397,1.38021 7.74066,1.32145 2.66669,-0.0588 5.42215,-0.6858 8.28359,-2.05274 4.85066,-3.58125 9.49706,-5.64779 14.00396,-7.78416 3.37911,-1.60176 6.67749,-3.24617 9.94521,-5.54184 m -13.06724,5.06752 c 2.44481,-1.68992 4.84672,-3.12752 7.19982,-4.60979 4.12123,-2.59605 8.09527,-5.33596 11.89948,-9.79258 7.80832,-3.86577 13.84939,-7.69112 19.88151,-11.60738 5.72484,-3.71676 11.45513,-7.53262 18.62601,-11.39588 m -11.10022,2.96631 c 4.44072,-3.26958 9.13354,-6.63224 14.63155,-10.16831 8.31513,-3.83602 16.24878,-8.76038 23.984,-13.61893 7.73522,-4.85855 15.27489,-9.65484 22.83836,-13.24271 1.34501,-1.09656 2.71007,-2.1785 4.0913,-3.24887 m -15.49044,12.09363 c 3.83362,-2.09016 7.71378,-4.04604 11.65125,-5.72175 14.25695,-10.45703 31.53549,-19.57561 47.83617,-29.34286 m -209.59492,91.14736 c 6.72277,2.79785 13.47405,5.27941 19.73857,8.87769 4.25223,2.48311 8.80252,5.15947 13.66505,6.2771 2.43127,0.55881 4.94098,0.72914 7.53075,0.2789 2.58977,-0.45025 5.25957,-1.52076 8.00932,-3.46906 4.63398,-4.70904 9.06887,-7.87931 13.3377,-11.22011 4.26882,-3.3408 8.36952,-6.8422 12.33868,-12.3355 3.57108,-2.39225 6.79075,-4.75842 9.82135,-7.13028 m -24.36812,17.81916 c 0.1892,-0.11852 0.37809,-0.23714 0.56667,-0.35601 4.30771,-2.71531 8.45254,-5.56329 12.47741,-10.15594 8.1335,-4.06627 14.46299,-8.06324 20.85556,-12.18983 6.39257,-4.12659 12.84621,-8.39437 21.28308,-12.87353 8.63735,-3.1407 17.07655,-7.30769 25.48884,-11.25539 0.96173,-0.45132 1.92309,-0.89986 2.88429,-1.34383 m -27.39492,7.56983 c 7.63803,-3.50094 15.18424,-7.97869 22.77656,-12.52369 8.37591,-5.01408 16.80749,-10.10868 25.43381,-14.03271 8.07382,-6.01834 16.96832,-11.72278 26.15662,-17.44507 m -28.73118,20.39307 c 13.08875,-9.17933 27.38194,-17.43371 40.95598,-26.42915 1.88669,-0.31497 3.82833,-0.89972 5.47474,-1.9283 m -138.67217,86.3586 137.57874,-83.35364 m -63.88024,40.54693 119.94995,-78.79558 M 461.10549,638.27003 586.28623,557.1978 m -238.46753,120.5774 44.1715,17.8951 m -9.08905,-8.21144 127.3569,-87.01094"
       id="path2991"
       inkscape:connector-curvature="0"
       sodipodi:nodetypes="cccccccc"
       inkscape:path-effect="#path-effect3019"
       inkscape:original-d="m 330.71429,668.07647 c 9.36677,4.55659 19.45164,7.34638 28.57142,12.85714 8.4442,5.18497 18.15175,11.46728 29.20011,4.64483 9.31583,-8.47648 17.84239,-10.82438 25.79989,-20.35912 16.13108,-8.64751 24.97459,-17.00751 41.39563,-27.21068 16.84327,-7.46777 32.67096,-19.68269 48.83833,-26.98382 14.29508,-10.9215 30.949,-20.37199 46.19462,-30.8055 2.64443,-0.42433 5.39199,-1.42885 7.14285,-3.57142" />
    <path
       style="fill:none;stroke:#000000;stroke-width:1px;stroke-linecap:butt;stroke-linejoin:miter;stroke-opacity:1"
       d="m 196.26222,575.25752 c 1.59652,8.66102 1.82082,17.67248 1.6926,26.82532 -0.15905,11.35413 -0.86051,22.92581 -0.12747,34.29819 1.14632,6.26982 1.53719,12.60542 1.56365,18.9578 m -3.42331,-29.44135 c 0.0118,0.15826 0.024,0.31651 0.0366,0.47476 2.15501,10.70312 2.30969,21.75756 2.3598,32.9549 0.036,8.0364 0.0191,16.14729 0.64917,24.25556 m -9.58082,-110.52752 c 0.60172,8.19954 0.4937,16.53293 0.36586,24.85556 -0.17088,11.12476 -0.37706,22.23053 1.0005,32.98202 1.19652,4.69751 1.9452,9.40771 2.41539,14.10888 m 3.43072,-13.75721 c 0.0721,0.57242 0.14703,1.1439 0.22491,1.71441 2.85152,11.24164 3.18078,22.49362 3.14006,33.74018 -0.0387,10.69365 -0.41576,21.37949 0.71257,32.03877 M 188.44318,562.77168 c 1.10401,9.18662 1.2479,18.65613 1.47579,28.18019 0.2684,11.21701 0.65273,22.50992 2.81146,33.50507 2.24421,6.98347 3.61796,14.01563 4.66452,21.02538 m -2.77237,-14.94434 c 1.97181,11.11515 2.16713,21.93038 2.40108,32.40374 0.18053,8.08203 0.38597,15.95869 1.44756,23.61541 m -9.47283,-116.23589 c 0.72381,8.35964 0.76549,16.84 0.84153,25.32302 0.1015,11.32161 0.26404,22.64803 2.15049,33.70563 1.43061,4.85907 2.43502,9.74699 3.19245,14.6491 m 2.67489,-20.54194 c 0.0572,0.53989 0.11706,1.07997 0.17965,1.62021 2.56468,10.80357 2.56546,22.06462 2.04694,33.60597 -0.36425,8.10752 -0.98579,16.35394 -1.15344,24.67437 m -6.30583,-119.77323 c 2.04112,10.38449 2.21529,20.79461 2.00566,31.05689 -0.22732,11.12778 -0.90576,22.08216 -0.12504,32.67001 1.65699,8.23388 1.82096,16.50001 1.56648,24.74289 m 1.09882,-26.51013 c 1.90581,10.9812 2.05386,21.94941 2.13463,32.93681 0.0764,10.38902 0.0936,20.79171 1.47861,31.22833 m -5.59251,-98.64236 3.95968,114.7557 m -4.5944,-72.47017 5.35615,108.00792 M 197.6519,600.16988 196.40588,749.3053 m -3.62077,-230.82672 3.1145,128.81065 m -9.18197,-56.92677 16.54792,77.542"
       id="path2993"
       inkscape:connector-curvature="0"
       inkscape:path-effect="#path-effect3023"
       inkscape:original-d="m 192.14286,560.93361 c 4.4468,21.99746 0.58514,45.36158 2.77737,67.86871 4.7387,21.77086 0.45774,44.29927 2.93691,66.41701"
       sodipodi:nodetypes="ccc" />
    <path
       style="fill:none;stroke:#000000;stroke-width:1px;stroke-linecap:butt;stroke-linejoin:miter;stroke-opacity:1"
       d="m 537.4209,564.29981 c 1.9656,-0.18987 4.16227,-0.40945 6.51991,-0.61077 5.76015,-0.49185 12.47168,-0.8682 19.20342,-0.49242 7.06544,0.39441 14.14739,1.55034 20.10057,2.78227 1.57753,0.32645 3.0762,0.65806 4.47519,0.98198 m -50.30434,-13.10749 c 1.32893,-0.11724 2.75428,-0.24047 4.25942,-0.35604 5.50396,-0.42263 12.08175,-0.73847 18.86713,-0.31619 7.12175,0.4432 14.46299,1.63515 20.7308,2.90041 5.18043,1.04575 9.62352,2.13926 12.57669,2.89022 m -64.94227,1.28094 c 0.0716,-0.006 0.14358,-0.0119 0.21604,-0.0179 2.07693,-0.17364 4.51829,-0.41238 7.22741,-0.6396 5.41823,-0.45444 11.91565,-0.86313 18.63042,-0.61608 7.04763,0.25929 14.32202,1.17293 20.52436,2.1402 2.25628,0.35187 4.37008,0.71152 6.27801,1.05234 m -43.62507,-1.79162 c 1.42977,-0.0492 2.95621,-0.10498 4.55845,-0.15594 5.80339,-0.18458 12.59298,-0.31113 19.44649,0.21401 7.19325,0.55117 14.45372,1.76121 20.59335,3.01259 1.44103,0.2937 2.82036,0.58969 4.1225,0.87981 m -60.97629,-10.86462 c 0.78993,-0.051 1.66323,-0.12207 2.61168,-0.20568 2.1195,-0.18684 4.61476,-0.43642 7.39138,-0.66775 5.55325,-0.46267 12.24194,-0.8501 19.21011,-0.54389 7.3136,0.32138 14.92769,1.33898 21.47399,2.41622 4.62432,0.76097 8.71015,1.55207 11.74352,2.16257 m -74.02049,-7.97468 113.47923,16.72133 m -107.70481,-21.36781 139.5711,33.4162 m -142.40114,-32.31342 133.09446,28.45622 m -206.4858,-11.06863 189.72671,-12.77391 m -119.69364,2.42205 95.24949,7.54292"
       id="path2997"
       inkscape:connector-curvature="0"
       sodipodi:nodetypes="csc"
       inkscape:path-effect="#path-effect3025"
       inkscape:original-d="m 527.85714,556.6479 c 5.30326,0.22277 18.25572,-1.70263 31.70696,-0.87023 14.11805,0.87367 28.74927,4.53134 34.08614,5.86429" />
    <path
       style="fill:none;stroke:#000000;stroke-width:1px;stroke-linecap:butt;stroke-linejoin:miter;stroke-opacity:1"
       d="m 553.60694,584.89302 c 2.2658,0.48163 4.38998,0.91833 6.50014,1.47207 4.02126,1.05525 7.99878,2.53143 12.73635,5.59769 5.16112,1.33078 9.48048,3.70383 13.92021,5.65476 4.43973,1.95093 9.00421,3.47896 14.60349,3.1432 2.08774,-0.42491 3.47161,-0.8056 4.32771,-1.23288 0.42804,-0.21363 0.724,-0.43885 0.90826,-0.68639 0.18427,-0.24754 0.25668,-0.51735 0.23664,-0.81985 -0.0401,-0.60499 -0.45112,-1.34034 -1.06091,-2.29507 -0.60979,-0.95473 -1.41747,-2.12911 -2.24724,-3.61366 -3.9501,-3.33285 -8.87272,-6.51866 -13.997,-8.74199 m -35.08065,-8.07505 c 1.14256,0.28075 2.26682,0.56851 3.39289,0.89238 3.8325,1.10226 7.67871,2.61855 12.38383,5.72663 5.1306,1.37011 9.52838,3.77057 14.11657,5.74699 4.58818,1.97642 9.36025,3.52617 15.29347,3.22173 2.21467,-0.41301 3.69273,-0.78506 4.61249,-1.20641 0.45988,-0.21068 0.78032,-0.43361 0.98552,-0.67919 0.20519,-0.24559 0.29532,-0.51374 0.29582,-0.8143 9.9e-4,-0.60112 -0.35526,-1.33131 -0.8861,-2.27841 -0.53083,-0.9471 -1.23735,-2.11159 -1.94083,-3.5831 -2.31399,-2.13448 -5.00044,-4.20114 -7.87248,-5.97719 m 4.37903,16.28999 c -0.13353,-0.23057 -0.28419,-0.47544 -0.4486,-0.73628 -0.62141,-0.98589 -1.43939,-2.19994 -2.27078,-3.73342 -3.77198,-3.31888 -8.34685,-6.5301 -13.08191,-8.89874 m -35.68531,0.54288 c 4.23724,1.3581 7.82799,2.16704 11.39502,3.28031 4.01898,1.25432 8.00689,2.89397 12.79892,6.10491 5.21232,1.46686 9.60899,3.90989 14.15231,5.90512 4.54331,1.99522 9.23006,3.53927 15.02044,3.21293 2.16038,-0.42133 3.59789,-0.80042 4.49036,-1.22643 0.44623,-0.21301 0.7562,-0.43773 0.95245,-0.68485 0.19624,-0.24711 0.27881,-0.51656 0.27054,-0.81863 -0.0165,-0.60412 -0.39612,-1.33833 -0.96029,-2.29103 -0.56416,-0.9527 -1.31319,-2.12426 -2.06858,-3.60366 -4.3363,-3.86005 -9.90554,-7.49589 -15.55077,-9.58273 m -40.98991,-5.94817 c 1.65908,0.3919 3.26786,0.77066 4.88496,1.22221 3.82384,1.06775 7.68122,2.54213 12.45734,5.56697 5.19737,1.29181 9.69785,3.6003 14.4207,5.46531 4.72285,1.865 9.65271,3.29129 15.82423,2.80215 2.30524,-0.48322 3.84933,-0.90637 4.81378,-1.36237 0.48223,-0.228 0.81984,-0.46424 1.03969,-0.7212 0.21986,-0.25695 0.3224,-0.53473 0.33727,-0.84646 0.0297,-0.62345 -0.28822,-1.38338 -0.76386,-2.37349 -0.47564,-0.99012 -1.11147,-2.20977 -1.72627,-3.75098 -4.46731,-4.73597 -10.43271,-9.27919 -16.33171,-11.5299 m -30.13168,10.33083 c 1.44862,0.42474 2.863,0.83382 4.28331,1.28992 3.80964,1.22338 7.64978,2.79952 12.3928,5.82263 5.16624,1.29019 9.63082,3.49475 14.3112,5.18588 4.68037,1.69113 9.56379,2.88617 15.66773,2.0296 2.27955,-0.62287 3.80513,-1.14933 4.75705,-1.67521 0.47596,-0.26294 0.80877,-0.52607 1.02452,-0.80599 0.21575,-0.27993 0.31482,-0.57716 0.32568,-0.91143 0.0217,-0.66855 -0.30694,-1.4886 -0.79797,-2.56544 -0.49102,-1.07685 -1.14652,-2.40769 -1.78599,-4.08806 -2.97495,-3.45277 -6.60096,-6.89859 -10.43433,-9.70059 m 6.11008,20.60379 9.04245,-4.11438 m 3.16991,-5.34634 -49.68704,-19.88603 m 59.66012,31.0188 -53.88244,-34.0171 m -34.34426,8.07751 54.7074,19.12813 m -20.02607,-2.89321 44.92992,12.416"
       id="path2999"
       inkscape:connector-curvature="0"
       sodipodi:nodetypes="ccccc"
       inkscape:path-effect="#path-effect3017"
       inkscape:original-d="m 544.28571,575.21932 c 9.46566,3.05749 15.61474,3.03542 25,9.28572 10.23768,2.77234 17.36207,9.54901 28.85986,8.78063 8.57844,-1.77329 5.66338,-2.77035 2.56872,-8.78063 C 595.08836,579.4661 587.3878,574.73567 580,573.07647" />
    <path
       style="fill:none;stroke:#000000;stroke-width:1px;stroke-linecap:butt;stroke-linejoin:miter;stroke-opacity:1"
       d="m 605.27035,588.33686 c 1.93814,0.18441 3.82812,0.52134 5.68206,0.9737 3.96873,0.96836 7.77244,2.46556 11.51814,4.13628 7.49141,3.34143 14.74751,7.37984 22.64309,9.26126 5.83335,1.2346 9.90101,2.15009 12.55302,2.62707 1.326,0.23849 2.29661,0.36827 2.9495,0.37771 0.32644,0.005 0.57344,-0.0206 0.74518,-0.0773 0.17175,-0.0567 0.26842,-0.14483 0.29216,-0.26495 0.0237,-0.12012 -0.0259,-0.2721 -0.14583,-0.45687 -0.1199,-0.18478 -0.30989,-0.4024 -0.56554,-0.65423 -0.5113,-0.50365 -1.28523,-1.14414 -2.28502,-1.93296 -1.99958,-1.57763 -4.90347,-3.74768 -8.41055,-6.60938 -0.10744,-0.0474 -0.41608,-0.1903 -0.90092,-0.41675 -0.48484,-0.22646 -1.1459,-0.53642 -1.95811,-0.91796 -0.76417,-0.35897 -1.66214,-0.78131 -2.67292,-1.25723 m 14.42526,1.16516 c -0.009,-0.009 -0.0175,-0.0183 -0.0264,-0.0276 -0.50278,-0.52291 -1.26359,-1.18973 -2.24182,-2.00964 -1.95647,-1.63981 -4.78265,-3.89187 -8.14329,-6.82352 -0.10366,-0.0492 -0.40141,-0.19735 -0.86842,-0.43155 -0.467,-0.2342 -1.10322,-0.55438 -1.88328,-0.94717 -1.56011,-0.78559 -3.69529,-1.86145 -6.20184,-3.12049 -5.0131,-2.51808 -11.5007,-5.76224 -17.92046,-8.93175 -6.41976,-3.1695 -12.77763,-6.26915 -17.65005,-8.56082 -2.43621,-1.14583 -4.50224,-2.09007 -6.022,-2.74018 -0.1262,-0.054 -0.24863,-0.10594 -0.3672,-0.15582 m 3.23136,24.14879 c 0.84108,0.17187 1.67717,0.37312 2.50928,0.59966 3.68438,1.00305 7.29014,2.50149 10.91367,4.14083 7.24706,3.27866 14.56933,7.12382 22.72121,8.70488 6.02166,1.0139 10.30613,1.72386 13.09829,2.06517 1.39607,0.17065 2.42051,0.24885 3.10969,0.22348 0.34459,-0.0127 0.60539,-0.0513 0.78735,-0.11775 0.18197,-0.0665 0.28497,-0.16068 0.31556,-0.28736 0.0306,-0.12669 -0.0109,-0.28649 -0.11868,-0.48287 -0.10777,-0.19638 -0.28196,-0.42912 -0.51772,-0.69999 -0.47152,-0.54173 -1.18938,-1.23584 -2.11598,-2.09495 -1.85321,-1.71822 -4.54048,-4.09535 -7.76767,-7.24119 -0.10022,-0.0547 -0.38798,-0.21879 -0.83989,-0.47895 -0.43524,-0.25056 -1.02275,-0.59022 -1.74168,-1.00738 m 18.68685,12.98001 c -0.0544,-0.0633 -0.11377,-0.12907 -0.17784,-0.19746 -0.45672,-0.48751 -1.15523,-1.10623 -2.06227,-1.87022 -1.81409,-1.52798 -4.46312,-3.63766 -7.68779,-6.44562 -0.10016,-0.046 -0.38768,-0.18489 -0.83987,-0.40529 -0.45218,-0.2204 -1.06906,-0.5223 -1.82834,-0.8945 -1.51856,-0.74442 -3.60716,-1.77036 -6.08651,-2.9874 -4.95869,-2.43407 -11.48969,-5.63856 -18.0627,-8.82562 -6.57302,-3.18705 -13.1746,-6.34695 -18.24102,-8.67856 -0.48155,-0.22161 -0.94928,-0.43578 -1.40191,-0.64187 m -10.91565,6.94089 c 3.47345,-0.14043 6.84055,0.33921 10.15676,1.20154 3.81877,0.99302 7.57199,2.49397 11.36019,4.14773 7.57641,3.3075 15.29114,7.22901 23.91818,8.92217 6.37081,1.09627 10.94208,1.88073 13.92425,2.27089 1.49109,0.19509 2.58688,0.29174 3.32416,0.27881 0.36864,-0.006 0.64766,-0.0403 0.84311,-0.10333 0.19546,-0.063 0.3068,-0.15502 0.34642,-0.27937 0.0396,-0.12434 0.009,-0.28136 -0.0829,-0.47361 -0.0918,-0.19225 -0.24525,-0.41962 -0.45492,-0.68372 -0.41935,-0.52821 -1.06389,-1.20331 -1.89476,-2.03765 -1.66176,-1.66867 -4.06929,-3.97317 -6.91003,-7.02151 -0.0903,-0.0522 -0.34923,-0.20902 -0.75524,-0.45764 -0.40601,-0.24862 -0.95905,-0.58902 -1.63703,-1.00866 -0.52874,-0.32726 -1.13345,-0.70272 -1.80362,-1.12053 m 13.96329,19.02284 c 0.0612,0.004 0.1201,0.007 0.1766,0.008 0.3264,0.0106 0.57382,-0.0108 0.74597,-0.0646 0.17214,-0.0539 0.26916,-0.14031 0.29331,-0.25868 0.0241,-0.11836 -0.025,-0.26829 -0.14386,-0.45028 -0.11888,-0.18199 -0.30736,-0.39617 -0.56051,-0.64433 -0.50631,-0.4963 -1.27144,-1.12835 -2.25255,-1.91396 -1.96221,-1.57122 -4.78852,-3.75619 -8.11864,-6.71857 -0.10288,-0.0499 -0.39838,-0.20033 -0.86138,-0.4397 -0.463,-0.23938 -1.09344,-0.56781 -1.86526,-0.97495 -1.54364,-0.81427 -3.65237,-1.94381 -6.11644,-3.30775 -4.92814,-2.72787 -11.25897,-6.41517 -17.46009,-10.25016 -6.20113,-3.83499 -12.28159,-7.80937 -16.91955,-10.84575 -2.31898,-1.51819 -4.27961,-2.79859 -5.72108,-3.69858 -0.72073,-0.45 -1.31165,-0.8049 -1.75217,-1.04746 -0.13644,-0.0751 -0.25844,-0.13948 -0.36538,-0.19257 m 0.17376,22.49256 c 2.28712,0.21518 4.5312,0.67126 6.75018,1.29735 3.77998,1.06653 7.48755,2.62633 11.22251,4.32812 7.46992,3.40358 15.04956,7.37572 23.51279,9.11043 6.25043,1.1268 10.72312,1.93058 13.64036,2.33514 1.45863,0.20229 2.53012,0.30449 3.25104,0.29534 0.36046,-0.005 0.63329,-0.037 0.82416,-0.0989 0.19087,-0.0619 0.29938,-0.15328 0.33593,-0.2769 0.0365,-0.12362 0.002,-0.27977 -0.0951,-0.47073 -0.0972,-0.19096 -0.2577,-0.41664 -0.47621,-0.6786 -0.43703,-0.52392 -1.10638,-1.19292 -1.96951,-2.01886 -1.56152,-1.49425 -3.75741,-3.50198 -6.35908,-6.09469 m 11.73848,5.20114 c 0.86242,0.11183 1.53338,0.17009 2.02919,0.16864 0.34249,-9.9e-4 0.60136,-0.0304 0.78184,-0.0901 0.18049,-0.0597 0.2825,-0.1496 0.31198,-0.27164 0.0295,-0.12204 -0.0133,-0.27628 -0.12326,-0.46427 -0.10993,-0.18799 -0.28705,-0.40971 -0.52692,-0.66634 -0.47975,-0.51326 -1.21047,-1.16628 -2.15897,-1.96703 -1.89701,-1.60149 -4.66495,-3.79442 -8.0512,-6.63006 -0.10432,-0.0467 -0.40389,-0.18774 -0.87525,-0.41035 -0.47136,-0.22261 -1.11454,-0.52675 -1.90675,-0.89895 -1.58442,-0.74441 -3.76525,-1.76088 -6.36118,-2.94031 -5.19186,-2.35886 -12.0576,-5.35691 -19.04345,-8.21115 -6.98585,-2.85424 -14.08601,-5.56743 -19.58854,-7.52597 -0.44711,-0.15915 -0.88364,-0.31337 -1.30863,-0.46238 m 1.60988,16.81904 c 1.45492,0.2672 2.88505,0.61059 4.29558,1.01418 3.92125,1.12197 7.69123,2.70924 11.41475,4.41197 7.44704,3.40544 14.70623,7.27228 22.62923,8.81881 5.85349,0.98853 9.94564,1.65653 12.613,1.97156 1.33368,0.15751 2.31013,0.22549 2.96693,0.19325 0.3284,-0.0161 0.57689,-0.0573 0.74973,-0.12575 0.17285,-0.0684 0.2702,-0.16381 0.29467,-0.2918 0.0245,-0.12798 -0.0243,-0.28933 -0.14292,-0.48802 -0.11861,-0.19868 -0.30691,-0.43442 -0.56045,-0.70906 -0.50707,-0.54927 -1.27506,-1.254 -2.26725,-2.12688 -1.98438,-1.74576 -4.86598,-4.16383 -8.34751,-7.35753 -0.10678,-0.0559 -0.41351,-0.22361 -0.8954,-0.48931 -0.48188,-0.26571 -1.13894,-0.62944 -1.94638,-1.07771 -1.61489,-0.89654 -3.83155,-2.13144 -6.45049,-3.59689 -2.45225,-1.37217 -5.25717,-2.94663 -8.24872,-4.6315 m 25.16336,11.47826 c -1.4935,-1.11039 -3.20929,-2.41061 -5.0888,-3.92138 -0.10454,-0.0439 -0.40486,-0.17694 -0.87577,-0.38813 -0.4709,-0.21118 -1.11236,-0.50058 -1.89852,-0.8576 -1.57233,-0.71405 -3.7232,-1.699 -6.24491,-2.86888 -5.04341,-2.33974 -11.557,-5.42639 -17.98096,-8.48932 -6.42396,-3.06293 -12.76431,-6.08856 -17.61312,-8.30553 -0.47277,-0.21616 -0.93142,-0.42471 -1.37468,-0.62501 M 709.3953,618.69074 565.40797,546.97331 m 100.21051,48.05844 -130.19097,-60.39077 m 144.18428,68.50546 -134.1554,-65.15561 m 24.47991,25.45608 96.36443,44.26323 m 53.80534,39.84329 -130.95926,-107.65927"
       id="path3001"
       inkscape:connector-curvature="0"
       sodipodi:nodetypes="cccc"
       inkscape:path-effect="#path-effect3015"
       inkscape:original-d="m 595.71429,580.21932 c 16.72253,-1.11279 29.88142,11.39299 45.98655,15.07174 23.79475,4.81482 19.48087,4.33349 6.08215,-7.28875 -1.65406,-0.77572 -52.84812,-26.5735 -54.92585,-26.35441" />
    <path
       style="fill:none;stroke:#ff0808;stroke-width:6;stroke-linecap:butt;stroke-linejoin:miter;stroke-opacity:1;stroke-miterlimit:4;stroke-dasharray:none"
       d="m 174.75639,500.81889 200.0102,154.55334"
       id="path3067"
       inkscape:connector-curvature="0" />
    <path
       style="fill:none;stroke:#ff0808;stroke-width:6;stroke-linecap:butt;stroke-linejoin:miter;stroke-miterlimit:4;stroke-opacity:1;stroke-dasharray:none"
       d="M 375.77675,655.87731 543.46206,565.97374"
       id="path3067-5"
       inkscape:connector-curvature="0"
       sodipodi:nodetypes="cc" />
    <path
       style="fill:none;stroke:#ff0808;stroke-width:6;stroke-linecap:butt;stroke-linejoin:miter;stroke-miterlimit:4;stroke-opacity:1;stroke-dasharray:none"
       d="m 543.20954,564.20597 97.22718,22.98097"
       id="path3067-3"
       inkscape:connector-curvature="0"
       sodipodi:nodetypes="cc" />
    <path
       sodipodi:type="arc"
       style="fill:#b9ddff;fill-opacity:1;stroke:#000000;stroke-width:4;stroke-miterlimit:4;stroke-opacity:1;stroke-dasharray:none;stroke-dashoffset:0"
       id="path3029"
       sodipodi:cx="177.78685"
       sodipodi:cy="486.67676"
       sodipodi:rx="12.121831"
       sodipodi:ry="12.121831"
       d="m 189.90868,486.67676 a 12.121831,12.121831 0 1 1 -24.24366,0 12.121831,12.121831 0 1 1 24.24366,0 z"
       transform="translate(-2.0203051,14.142136)" />
    <path
       sodipodi:type="arc"
       style="fill:#b9ddff;fill-opacity:1;stroke:#000000;stroke-width:4;stroke-miterlimit:4;stroke-opacity:1;stroke-dasharray:none;stroke-dashoffset:0"
       id="path3029-3"
       sodipodi:cx="177.78685"
       sodipodi:cy="486.67676"
       sodipodi:rx="12.121831"
       sodipodi:ry="12.121831"
       d="m 189.90868,486.67676 a 12.121831,12.121831 0 1 1 -24.24366,0 12.121831,12.121831 0 1 1 24.24366,0 z"
       transform="translate(196.97974,169.70563)" />
    <path
       sodipodi:type="arc"
       style="fill:#b9ddff;fill-opacity:1;stroke:#000000;stroke-width:4;stroke-miterlimit:4;stroke-opacity:1;stroke-dasharray:none;stroke-dashoffset:0"
       id="path3029-3-7"
       sodipodi:cx="177.78685"
       sodipodi:cy="486.67676"
       sodipodi:rx="12.121831"
       sodipodi:ry="12.121831"
       d="m 189.90868,486.67676 a 12.121831,12.121831 0 1 1 -24.24366,0 12.121831,12.121831 0 1 1 24.24366,0 z"
       transform="translate(366.68537,77.781748)" />
    <text
       xml:space="preserve"
       style="font-size:40px;font-style:normal;font-weight:normal;line-height:125%;letter-spacing:0px;word-spacing:0px;fill:#009c9e;fill-opacity:1;stroke:none;font-family:Sans"
       x="194.28572"
       y="435.21933"
       id="text3869"
       sodipodi:linespacing="125%"><tspan
         sodipodi:role="line"
         id="tspan3871"
         x="194.28572"
         y="435.21933"
         style="font-style:normal;font-variant:normal;font-weight:normal;font-stretch:normal;font-family:Times;-inkscape-font-specification:Times;fill:#009c9e;fill-opacity:1">hombro</tspan></text>
    <text
       xml:space="preserve"
       style="font-size:40px;font-style:normal;font-weight:normal;line-height:125%;letter-spacing:0px;word-spacing:0px;fill:#009c9e;fill-opacity:1;stroke:none;font-family:Sans"
       x="328.19342"
       y="740.10785"
       id="text3869-2"
       sodipodi:linespacing="125%"><tspan
         sodipodi:role="line"
         id="tspan3871-1"
         x="328.19342"
         y="740.10785"
         style="font-style:normal;font-variant:normal;font-weight:normal;font-stretch:normal;font-family:Times;-inkscape-font-specification:Times;fill:#009c9e;fill-opacity:1">codo</tspan></text>
    <text
       xml:space="preserve"
       style="font-size:40px;font-style:normal;font-weight:normal;line-height:125%;letter-spacing:0px;word-spacing:0px;fill:#009c9e;fill-opacity:1;stroke:none;font-family:Sans"
       x="394.09"
       y="535.8222"
       id="text3869-2-7"
       sodipodi:linespacing="125%"><tspan
         sodipodi:role="line"
         id="tspan3871-1-3"
         x="394.09"
         y="535.8222"
         style="font-style:normal;font-variant:normal;font-weight:normal;font-stretch:normal;font-family:Times;-inkscape-font-specification:Times;fill:#009c9e;fill-opacity:1">mueca</tspan></text>
    <text
       xml:space="preserve"
       style="font-size:40px;font-style:normal;font-weight:normal;line-height:125%;letter-spacing:0px;word-spacing:0px;fill:#af0000;fill-opacity:1;stroke:none;font-family:Sans"
       x="539.37518"
       y="358.41299"
       id="text3869-5"
       sodipodi:linespacing="125%"
       transform="matrix(0.78435519,0.62031197,-0.62031197,0.78435519,0,0)"><tspan
         sodipodi:role="line"
         id="tspan3871-2"
         x="539.37518"
         y="358.41299"
         style="font-style:normal;font-variant:normal;font-weight:normal;font-stretch:normal;font-family:Times;-inkscape-font-specification:Times;fill:#af0000;fill-opacity:1">brazo</tspan></text>
    <text
       xml:space="preserve"
       style="font-size:40px;font-style:normal;font-weight:normal;line-height:125%;letter-spacing:0px;word-spacing:0px;fill:#af0000;fill-opacity:1;stroke:none;font-family:Sans"
       x="3.3237424"
       y="824.47711"
       id="text3869-5-3"
       sodipodi:linespacing="125%"
       transform="matrix(0.85329652,-0.52142598,0.52142598,0.85329652,0,0)"><tspan
         sodipodi:role="line"
         id="tspan3871-2-3"
         x="3.3237424"
         y="824.47711"
         style="font-style:normal;font-variant:normal;font-weight:normal;font-stretch:normal;fill:#af0000;fill-opacity:1;font-family:Times;-inkscape-font-specification:Times">antebrazo</tspan></text>
    <text
       xml:space="preserve"
       style="font-size:40px;font-style:normal;font-weight:normal;line-height:125%;letter-spacing:0px;word-spacing:0px;fill:#af0000;fill-opacity:1;stroke:none;font-family:Sans"
       x="712.42816"
       y="349.1358"
       id="text3869-5-3-3"
       sodipodi:linespacing="125%"
       transform="matrix(0.96055,0.27810736,-0.27810736,0.96055,0,0)"><tspan
         sodipodi:role="line"
         id="tspan3871-2-3-8"
         x="712.42816"
         y="349.1358"
         style="font-style:normal;font-variant:normal;font-weight:normal;font-stretch:normal;fill:#af0000;fill-opacity:1;font-family:Times;-inkscape-font-specification:Times">mano</tspan></text>
  </g>
</svg>
