<?xml version="1.0" encoding="UTF-8" standalone="no"?>
<!-- Created with Inkscape (http://www.inkscape.org/) -->
<svg xmlns:dc="http://purl.org/dc/elements/1.1/" xmlns:cc="http://creativecommons.org/ns#" xmlns:rdf="http://www.w3.org/1999/02/22-rdf-syntax-ns#" xmlns:svg="http://www.w3.org/2000/svg" xmlns="http://www.w3.org/2000/svg" xmlns:sodipodi="http://sodipodi.sourceforge.net/DTD/sodipodi-0.dtd" xmlns:inkscape="http://www.inkscape.org/namespaces/inkscape" version="1.1" width="596.75" height="703.81" id="svg2" inkscape:version="0.48.2 r9819" sodipodi:docname="gazebo_vert_pos.svg" inkscape:export-filename="/home/nkoenig/Downloads/gazebo_vert_pos_small.png" inkscape:export-xdpi="25.575085" inkscape:export-ydpi="25.575085">
  <sodipodi:namedview pagecolor="#ffffff" bordercolor="#666666" borderopacity="1" objecttolerance="10" gridtolerance="10" guidetolerance="10" inkscape:pageopacity="0.00784314" inkscape:pageshadow="2" inkscape:window-width="529" inkscape:window-height="406" id="namedview4015" showgrid="false" inkscape:zoom="0.33531777" inkscape:cx="424.86123" inkscape:cy="351.905" inkscape:window-x="816" inkscape:window-y="235" inkscape:window-maximized="0" inkscape:current-layer="svg2"/>
  <defs id="defs4">
    <clipPath id="clipPath3020">
      <path d="m 0,0 5286.97,0 0,1276 L 0,1276 0,0 z" id="path3022" inkscape:connector-curvature="0"/>
    </clipPath>
    <clipPath id="clipPath3111">
      <path d="m 0,0 5286.98,0 0,1276 L 0,1276 0,0 z" id="path3113" inkscape:connector-curvature="0"/>
    </clipPath>
    <clipPath id="clipPath3222">
      <path d="m 0,0 1958.6,0 0,2815 L 0,2815 0,0 z" id="path3224" inkscape:connector-curvature="0"/>
    </clipPath>
    <clipPath id="clipPath3333">
      <path d="m 0,0 1958.59,0 0,2815 L 0,2815 0,0 z" id="path3335" inkscape:connector-curvature="0"/>
    </clipPath>
  </defs>
  <metadata id="metadata7">
    <rdf:RDF>
      <cc:Work rdf:about="">
        <dc:format>image/svg+xml</dc:format>
        <dc:type rdf:resource="http://purl.org/dc/dcmitype/StillImage"/>
        <dc:title/>
      </cc:Work>
    </rdf:RDF>
  </metadata>
  <g id="g3223">
    <path id="path3337" d="M 298.375 175.9375 C 296.87491 175.93844 295.35525 176.33375 294.03125 177.15625 L 179.84375 248.0625 C 177.43359 249.55875 175.96875 252.195 175.96875 255.03125 L 175.96875 386.90625 C 175.96875 389.74875 177.43359 392.40625 179.84375 393.90625 L 294.03125 464.8125 C 294.08585 464.8414 294.16263 464.87255 294.21875 464.90625 C 294.27975 464.94095 294.34425 464.96135 294.40625 465 C 294.53812 465.0689 294.6485 465.125 294.78125 465.1875 C 294.9165 465.2564 295.05125 465.3525 295.1875 465.40625 C 295.40038 465.49845 295.6255 465.55712 295.84375 465.625 C 295.97162 465.6684 296.08938 465.71483 296.21875 465.75 C 296.46438 465.8189 296.71825 465.86238 296.96875 465.90625 C 297.07562 465.92085 297.17387 465.95365 297.28125 465.96875 C 297.63863 466.01765 298.01513 466.03125 298.375 466.03125 C 299.12149 466.03125 299.86875 465.92875 300.59375 465.71875 C 300.87462 465.64115 301.165 465.55037 301.4375 465.4375 C 301.5188 465.4077 301.60625 465.37755 301.6875 465.34375 C 301.9125 465.24515 302.12375 465.122 302.34375 465 C 302.4625 464.9321 302.57 464.88137 302.6875 464.8125 L 302.71875 464.8125 L 302.9375 464.65625 L 416.90625 393.90625 C 419.3225 392.40125 420.79125 389.7575 420.78125 386.90625 L 420.59375 320.8125 C 420.58375 317.83625 418.94875 315.09625 416.34375 313.65625 C 413.74125 312.21375 410.59125 312.30125 408.0625 313.875 L 359.4375 344.15625 L 321.9375 320.9375 L 416.90625 261.8125 C 419.315 260.31125 420.78375 257.6825 420.78125 254.84375 C 420.77625 252.0075 419.31875 249.36875 416.90625 247.875 L 302.6875 177.15625 C 301.36163 176.335 299.87509 175.93656 298.375 175.9375 z M 192.09375 269.625 L 274.8125 320.96875 L 192.09375 372.34375 L 192.09375 269.625 z M 306.40625 330.625 L 343.875 353.84375 L 293.84375 385 C 291.42925 386.5 289.95949 389.1275 289.96875 391.96875 L 290.125 443.0625 L 199.71875 386.90625 L 290.34375 330.65625 L 294.03125 332.9375 C 295.35787 333.75875 296.8735 334.15625 298.375 334.15625 C 299.87988 334.15625 301.39125 333.7675 302.71875 332.9375 L 306.40625 330.625 z M 404.21875 335.59375 L 404.375 382.375 L 306.53125 443.125 L 306.40625 396.5 L 404.21875 335.59375 z " style="fill:#231f20;fill-opacity:1;fill-rule:nonzero;stroke:none"/>
    <path d="m 199.72537,255.04625 98.6465,61.2525 98.65375,-61.43125 -98.64212,-61.08125 -98.65813,61.26" id="path3341" style="fill:#f58113;fill-opacity:1;fill-rule:nonzero;stroke:none" inkscape:connector-curvature="0"/>
    <path d="m 214.88249,510.405 c -0.83837,10.86524 -10.32075,17.4375 -19.3115,17.4375 -10.91402,0 -19.60787,-8.84375 -19.60787,-18.92138 0,-9.48237 7.854,-18.916 19.55812,-18.916 9.68263,0 15.85588,6.66988 17.28763,10.376 l -4.24813,0 c -2.07275,-3.6085 -6.915,-7.065 -12.98975,-7.065 -9.2358,0 -15.95308,7.50875 -15.95308,15.65875 0,8.14888 6.71728,15.55659 16.10258,15.55659 7.75388,0 13.48238,-5.72754 14.7665,-10.81546 l -20.39787,0 0,-3.311 24.79337,0" id="path3343" style="fill:#231f20;fill-opacity:1;fill-rule:nonzero;stroke:none" inkscape:connector-curvature="0"/>
    <path d="m 235.7175,511.5925 14.17625,0 -7.01413,-16.7925 -7.16212,16.7925 z m 5.08687,-20.94238 4.10012,0 15.70713,36.54736 -4.0015,0 -5.28475,-12.29498 -16.98975,0 -5.33387,12.29498 -3.80375,0 15.60637,-36.54736" id="path3345" style="fill:#231f20;fill-opacity:1;fill-rule:nonzero;stroke:none" inkscape:connector-curvature="0"/>
    <path d="m 273.01787,523.88742 17.97938,-29.9273 -17.435,0 0,-3.31 21.53412,0 0,3.31 -17.92963,29.9273 18.47263,0 0,3.31006 -22.6215,0 0,-3.31006" id="path3347" style="fill:#231f20;fill-opacity:1;fill-rule:nonzero;stroke:none" inkscape:connector-curvature="0"/>
    <path d="m 309.37562,490.65012 20.005,0 0,3.31 -16.3475,0 0,13.13488 15.80625,0 0,3.31 -15.80625,0 0,13.48242 16.3475,0 0,3.31006 -20.005,0 0,-36.54736" id="path3349" style="fill:#231f20;fill-opacity:1;fill-rule:nonzero;stroke:none" inkscape:connector-curvature="0"/>
    <path d="m 348.65062,523.88742 5.1375,0 c 3.06375,0 4.93875,-0.14746 6.91125,-0.9375 2.2725,-0.93262 3.855,-3.45263 3.855,-6.2212 0,-2.81734 -1.8775,-5.23872 -4.29375,-6.17622 -1.73375,-0.6885 -3.21375,-0.835 -7.115,-0.835 l -4.495,0 0,14.16992 z m 0,-17.4863 4.5925,0 c 2.86625,0 4.495,-0.146 6.275,-1.03475 1.72875,-0.88862 2.96375,-2.95887 2.96375,-5.13612 0,-1.68025 -0.59625,-2.86138 -1.53375,-3.99913 -1.43,-1.63125 -3.65625,-2.271 -7.40625,-2.271 l -4.89125,0 0,12.441 z m -3.65625,-15.751 9.18625,0 c 11.50875,0 11.95375,8.24613 11.95375,9.731 0,4.29638 -2.7175,6.31875 -3.99875,7.35888 3.65125,1.479 6.07375,4.79 6.07375,8.98872 0,3.50635 -1.63125,6.71875 -4.1975,8.44777 -3.1125,1.82617 -5.53375,2.06982 -9.83125,2.02099 l -9.18625,0 0,-36.54736" id="path3351" style="fill:#231f20;fill-opacity:1;fill-rule:nonzero;stroke:none" inkscape:connector-curvature="0"/>
    <path d="m 400.78437,524.53146 c 8.445,0 15.70625,-6.86524 15.70625,-15.55659 0,-8.545 -7.06125,-15.65875 -15.70625,-15.65875 -8.24875,0 -15.65625,6.71875 -15.65625,15.80513 0,8.34479 7.15875,15.41021 15.65625,15.41021 z m 0,-34.52634 c 10.27125,0 19.35875,8.14988 19.35875,18.916 0,10.77148 -9.13625,18.92138 -19.35875,18.92138 -10.3725,0 -19.31375,-8.44726 -19.31375,-18.72125 0,-11.50875 9.5825,-19.11613 19.31375,-19.11613" id="path3353" style="fill:#231f20;fill-opacity:1;fill-rule:nonzero;stroke:none" inkscape:connector-curvature="0"/>
  </g>
</svg>